<?xml version="1.0" encoding="UTF-8" standalone="no"?>
<!-- Created with Inkscape (http://www.inkscape.org/) -->

<svg
   width="320"
   height="132"
   viewBox="0 0 84.666667 34.925"
   version="1.1"
   id="svg5"
   inkscape:version="1.3 (1:1.3+202307231459+0e150ed6c4)"
   sodipodi:docname="logo-gcp.svg"
   inkscape:export-filename="logo-gcp.png"
   inkscape:export-xdpi="200"
   inkscape:export-ydpi="200"
   xmlns:inkscape="http://www.inkscape.org/namespaces/inkscape"
   xmlns:sodipodi="http://sodipodi.sourceforge.net/DTD/sodipodi-0.dtd"
   xmlns="http://www.w3.org/2000/svg"
   xmlns:svg="http://www.w3.org/2000/svg">
  <sodipodi:namedview
     id="namedview7"
     pagecolor="#ffffff"
     bordercolor="#000000"
     borderopacity="0.25"
     inkscape:pageshadow="2"
     inkscape:pageopacity="0.0"
     inkscape:pagecheckerboard="0"
     inkscape:document-units="mm"
     showgrid="false"
     showguides="true"
     inkscape:guide-bbox="true"
     inkscape:zoom="1.877186"
     inkscape:cx="140.63604"
     inkscape:cy="59.397418"
     inkscape:window-width="1920"
     inkscape:window-height="1043"
     inkscape:window-x="0"
     inkscape:window-y="0"
     inkscape:window-maximized="1"
     inkscape:current-layer="layer1"
     inkscape:showpageshadow="2"
     inkscape:deskcolor="#d1d1d1" />
  <defs
     id="defs2" />
  <g
     inkscape:label="Layer 1"
     inkscape:groupmode="layer"
     id="layer1">
    <path
       style="fill:none;stroke:#03045e;stroke-width:4.63937475;stroke-linecap:round;stroke-linejoin:bevel;stroke-miterlimit:4;stroke-dasharray:none;stroke-dashoffset:0;stroke-opacity:1"
       d="m 33.266151,56.371232 c 12.970767,0 25.108566,-11.714973 25.108566,-24.807714 0,-11.793646 -9.966787,-24.8016179 -25.075399,-24.8016179 -17.98899,0 -24.8105011,15.3789239 -24.8105011,24.8390489 0,13.57598 11.4077661,24.770283 24.7773341,24.770283 z"
       id="path902"
       sodipodi:nodetypes="cscsc"
       transform="matrix(0.32331943,0,0,0.32331943,0.5536802,7.217645)" />
    <path
       style="fill:none;stroke:#032779;stroke-width:4.63937475;stroke-linecap:round;stroke-linejoin:round;stroke-miterlimit:4;stroke-dasharray:none;stroke-dashoffset:0;stroke-opacity:1"
       d="M 74.723145,56.351152 95.819185,6.7502041 117.21176,56.335162"
       id="path3919"
       sodipodi:nodetypes="ccc"
       transform="matrix(0.32331943,0,0,0.32331943,0.5536802,7.217645)" />
    <path
       style="fill:none;stroke:#025099;stroke-width:4.63937475;stroke-linecap:round;stroke-linejoin:round;stroke-miterlimit:4;stroke-dasharray:none;stroke-dashoffset:0;stroke-opacity:1"
       d="m 165.15586,12.76109 c -5.40854,-6.3121629 -18.44033,-8.5080967 -26.55878,-2.941657 -5.43312,4.507039 -7.27249,14.995298 9.73349,19.994545 10.67639,3.476815 19.79784,7.692895 18.10866,17.04869 -1.62282,6.056446 -7.54287,9.542564 -15.35821,9.542564 -7.15358,-0.0949 -12.03562,-1.957959 -17.78347,-6.825486"
       id="path4671"
       sodipodi:nodetypes="cccccc"
       transform="matrix(0.32331943,0,0,0.32331943,0.5536802,7.217645)" />
    <path
       style="fill:none;stroke:#017ab9;stroke-width:4.63937475;stroke-linecap:round;stroke-linejoin:round;stroke-miterlimit:4;stroke-dasharray:none;stroke-dashoffset:0;stroke-opacity:1"
       d="m 228.62182,14.027451 c -18.64359,-16.7976293 -42.40708,-2.302678 -42.40708,17.36255 0,19.873694 23.88952,35.101415 42.39867,17.734705"
       id="path6472"
       sodipodi:nodetypes="ccc"
       transform="matrix(0.32331943,0,0,0.32331943,0.5536802,7.217645)" />
    <path
       style="fill:none;stroke:#01a0d7;stroke-width:4.63937475;stroke-linecap:round;stroke-linejoin:round;stroke-miterlimit:4;stroke-dasharray:none;stroke-dashoffset:0;stroke-opacity:1"
       d="M 249.95314,6.7632531 V 56.743072"
       id="path6948"
       transform="matrix(0.32331943,0,0,0.32331943,0.5536802,7.217645)" />
  </g>
</svg>
